<?xml version="1.0" standalone="no"?>
<!DOCTYPE svg PUBLIC "-//W3C//DTD SVG 20010904//EN"
 "http://www.w3.org/TR/2001/REC-SVG-20010904/DTD/svg10.dtd">
<svg version="1.0" xmlns="http://www.w3.org/2000/svg"
 width="217.000000pt" height="217.000000pt" viewBox="0 0 217.000000 217.000000"
 preserveAspectRatio="xMidYMid meet">
<metadata>
Created by potrace 1.11, written by Peter Selinger 2001-2013
</metadata>
<g transform="translate(0.000000,217.000000) scale(0.100000,-0.100000)"
fill="#000000" stroke="none">
<path d="M0 1085 l0 -1085 1085 0 1085 0 0 1085 0 1085 -1085 0 -1085 0 0
-1085z m1345 620 c121 -32 115 -26 115 -121 0 -46 -4 -84 -9 -84 -5 0 -40 12
-77 26 -90 35 -261 45 -345 20 -113 -33 -197 -128 -241 -271 -18 -56 -22 -95
-22 -195 0 -143 14 -221 55 -301 40 -80 69 -111 141 -150 63 -34 63 -34 198
-34 127 1 140 3 218 32 l82 32 0 -85 0 -84 -34 -14 c-112 -47 -324 -64 -451
-37 -182 39 -314 168 -374 366 -27 87 -38 286 -22 397 38 267 184 446 413 508
87 24 254 21 353 -5z"/>
</g>
</svg>
